<svg width="80" height="101" viewBox="0 0 80 101" fill="none" xmlns="http://www.w3.org/2000/svg">
<path d="M13.1094 36.8424V4.18632C13.1094 0.58328 17.3092 -1.24613 19.9474 0.951393L20.3657 1.35297L46.6467 29.8204C47.3552 30.5878 47.751 31.5926 47.7561 32.6371C47.7613 33.6817 47.3755 34.6903 46.6746 35.4648L46.2507 35.8719L29.0889 50.1725L46.2563 64.4843C47.057 65.1534 47.5787 66.0976 47.719 67.1316C47.8594 68.1655 47.6082 69.2146 47.0148 70.0729L46.6467 70.5359L20.3713 99.0144C17.9228 101.669 13.6002 100.169 13.1485 96.7611L13.1094 96.1811V63.4804L6.86265 68.6897C6.0514 69.364 5.01536 69.7068 3.96205 69.6496C2.90874 69.5924 1.91593 69.1394 1.18247 68.3812C0.449014 67.6231 0.0290667 66.6158 0.00674291 65.5612C-0.0155809 64.5066 0.361365 63.4824 1.06208 62.6939L1.50828 62.2645L13.1094 52.5932V47.7408L1.50828 38.0583C0.695982 37.3827 0.169409 36.4248 0.0343383 35.3769C-0.100733 34.3291 0.165706 33.2689 0.78013 32.4094C1.39455 31.5499 2.31145 30.9548 3.34663 30.7435C4.38181 30.5322 5.45859 30.7205 6.36068 31.2705L6.86265 31.633L13.1094 36.8424V4.18632V36.8424ZM22.5576 55.6161L21.4756 56.5085V85.4779L37.5164 68.0929L22.5576 55.6161ZM64.7902 24.3712C65.6343 23.6519 66.7294 23.2971 67.8349 23.385C68.9404 23.4728 69.9658 23.9961 70.6856 24.8397C76.7095 31.8979 80.0129 40.8765 80 50.1558C80.012 59.4633 76.6876 68.4669 70.6298 75.5333C69.9087 76.3764 68.8822 76.8986 67.776 76.9849C66.6699 77.0712 65.5748 76.7145 64.7317 75.9934C63.8885 75.2723 63.3663 74.2458 63.28 73.1396C63.1937 72.0335 63.5504 70.9384 64.2715 70.0952C69.0333 64.5444 71.6457 57.4693 71.6338 50.1558C71.6338 42.7601 69.0124 35.7771 64.3217 30.2666C63.6024 29.4225 63.2477 28.3274 63.3355 27.2219C63.4234 26.1164 63.9466 25.091 64.7902 24.3712ZM53.6632 34.4831C54.0812 34.1261 54.5656 33.855 55.0885 33.6853C55.6115 33.5156 56.1627 33.4506 56.7108 33.4942C57.2588 33.5377 57.7929 33.6888 58.2825 33.9389C58.7721 34.189 59.2076 34.5331 59.5641 34.9516C63.1829 39.1945 65.1668 44.5905 65.1583 50.167C65.1653 55.7618 63.1667 61.1738 59.5251 65.4213C58.7932 66.2258 57.7768 66.7135 56.6914 66.7813C55.606 66.849 54.5368 66.4913 53.7107 65.7841C52.8845 65.0769 52.3662 64.0757 52.2657 62.9928C52.1652 61.9099 52.4904 60.8305 53.1724 59.9833C55.4982 57.2671 56.7977 53.8202 56.7977 50.167C56.7977 46.5249 55.5037 43.0947 53.1947 40.3785C52.4753 39.5345 52.1206 38.4393 52.2085 37.3338C52.2963 36.2283 52.8196 35.203 53.6632 34.4831ZM21.4812 14.8895V43.8198L22.5576 44.7233L37.5164 32.2633L21.4756 14.8895H21.4812Z" fill="#3385FF"/>
</svg>
